<svg xmlns="http://www.w3.org/2000/svg" width="80" height="52" viewBox="0 0 80 52" fill="none"><path d="M41.5 37.5C36.442 33.3408 34.9578 32.6862 33.2419 31.8201V24.327C34.345 23.3955 34.9905 22.0145 34.9905 20.5519V11.8577C34.9905 6.97124 31.0111 3 26.1329 3H24.2616C19.3752 3 15.404 6.97941 15.404 11.8577V20.5519C15.3795 22.0145 16.025 23.3873 17.1281 24.327V31.8201C15.4122 32.6781 9.96192 35.5625 4.90391 39.7135C3.68639 40.7022 3 42.1812 3 43.7583V49.7151" stroke="#4D4D4D" stroke-width="2" stroke-linecap="round" stroke-linejoin="round"></path><path d="M73.7955 25.2607H66.1807V23.849C66.1807 23.0211 65.855 22.2338 65.2713 21.6501C64.6877 21.0665 63.9004 20.7407 63.0724 20.7407H55.1862C54.3582 20.7407 53.571 21.0665 52.9873 21.6501C52.4037 22.2338 52.0779 23.0211 52.0779 23.849V25.2607H44.4632C43.4859 25.2607 42.5629 25.6543 41.8706 26.333C41.1784 27.0252 40.7983 27.9482 40.7983 28.9255V48.0913C40.7983 49.0686 41.192 49.9916 41.8706 50.6838C42.5629 51.3761 43.4859 51.7561 44.4632 51.7561H73.7819C74.7592 51.7561 75.6822 51.3625 76.3744 50.6838C77.0667 49.9916 77.4467 49.0686 77.4467 48.0913V28.9255C77.4467 27.9482 77.0531 27.0252 76.3744 26.333C75.6822 25.6407 74.7592 25.2607 73.7819 25.2607H73.7955ZM53.7746 23.849C53.7746 23.469 53.9239 23.1161 54.1818 22.8446C54.4533 22.5867 54.8062 22.4374 55.1862 22.4374H63.0724C63.4525 22.4374 63.8054 22.5867 64.0769 22.8446C64.3483 23.1025 64.4841 23.469 64.4841 23.849V25.2607H53.7746V23.849ZM75.7636 48.0913C75.7636 48.6206 75.56 49.1093 75.18 49.4894C74.7999 49.8694 74.3113 50.073 73.7819 50.073H44.4632C43.9338 50.073 43.4452 49.8694 43.0651 49.4894C42.6851 49.1093 42.4815 48.6206 42.4815 48.0913V41.5896C43.0651 41.9696 43.7574 42.1732 44.4496 42.1732H53.1909V43.5849C53.1909 43.8156 53.2859 44.0192 53.4353 44.1821C53.5846 44.345 53.8153 44.4264 54.0325 44.4264H64.1854C64.4162 44.4264 64.6198 44.3314 64.7827 44.1821C64.9456 44.0328 65.027 43.8021 65.027 43.5849V42.1732H73.7683C74.4741 42.1732 75.1528 41.9696 75.7365 41.5896V48.0913H75.7636ZM54.9012 42.7298V39.9065H63.3575V42.7298H54.9012ZM75.7636 38.4948C75.7636 39.0242 75.56 39.5128 75.18 39.8929C74.7999 40.273 74.3113 40.4766 73.7819 40.4766H65.0406V39.0649C65.0406 38.8342 64.9456 38.6306 64.7963 38.4677C64.6469 38.3048 64.4162 38.2234 64.199 38.2234H54.0461C53.8153 38.2234 53.6117 38.3184 53.4488 38.4677C53.2859 38.617 53.2045 38.8477 53.2045 39.0649V40.4766H44.4632C43.9338 40.4766 43.4452 40.273 43.0651 39.8929C42.6851 39.5128 42.4815 39.0242 42.4815 38.4948V28.912C42.4815 28.3826 42.6851 27.8939 43.0651 27.5139C43.4452 27.1338 43.9338 26.9302 44.4632 26.9302H73.7819C74.3113 26.9302 74.7999 27.1338 75.18 27.5139C75.56 27.8939 75.7636 28.3826 75.7636 28.912V38.4948Z" fill="#4D4D4D"></path><path d="M24.9171 36.771L22.1345 51.9869H27.9711L25.3107 36.771H24.9171Z" fill="#D52B1E"></path><path d="M27.9714 33.0923H22.1348L24.9038 36.2142H25.2974L27.9714 33.0923Z" fill="#D52B1E"></path></svg>