<svg xmlns="http://www.w3.org/2000/svg" width="80" height="52" viewBox="0 0 80 52" fill="none"><g clip-path="url(#clip0_984_569)"><path d="M4 52.5468V44.4417C4 43.4479 4.4417 42.5424 5.19258 41.924C8.35071 39.3401 11.7518 37.5292 12.8118 36.9991V32.3171C12.1272 31.7429 11.7297 30.8816 11.7297 29.9541V24.5212C11.7297 21.4735 14.2032 19 17.2509 19H18.4214C21.4691 19 23.9426 21.4735 23.9426 24.5212V29.9541C23.9426 30.8595 23.5451 31.7208 22.8604 32.3171V36.9991C22.9929 37.0654 23.9647 37.5071 24.1634 37.6175" stroke="#4E4E4E" stroke-width="2" stroke-miterlimit="10"></path><path d="M77.1634 49.5468V41.4417C77.1634 40.4479 76.7217 39.5424 75.9708 38.924C72.8127 36.3401 69.4117 34.5292 68.3516 33.9991V29.3171C69.0362 28.7429 69.4337 27.8816 69.4337 26.9541V21.5212C69.4337 18.4735 66.9602 16 63.9125 16H62.7421C59.6943 16 57.2208 18.4735 57.2208 21.5212V26.9541C57.2208 27.8595 57.6184 28.7208 58.303 29.3171V33.9991C58.1705 34.0654 57.1988 34.5071 57 34.6175" stroke="#4E4E4E" stroke-width="2" stroke-miterlimit="10"></path><path d="M63.3871 49.7151V43.7583C63.3871 42.1812 62.6925 40.7022 61.4832 39.7135C56.4252 35.5543 50.9749 32.6862 49.259 31.8201V24.327C50.3621 23.3955 51.0076 22.0145 51.0076 20.5519V11.8577C51.0076 6.97124 47.0282 3 42.15 3H40.2787C35.3923 3 31.4211 6.97941 31.4211 11.8577V20.5519C31.3966 22.0145 32.0421 23.3873 33.1452 24.327V31.8201C31.4292 32.6781 25.979 35.5625 20.921 39.7135C19.7035 40.7022 19.0171 42.1812 19.0171 43.7583V49.7151" stroke="#D52B1E" stroke-width="2" stroke-linecap="round" stroke-linejoin="round"></path></g><defs><clipPath id="clip0_984_569"><rect width="79.3787" height="52" fill="white"></rect></clipPath></defs></svg>