<svg xmlns="http://www.w3.org/2000/svg" width="80" height="52" viewBox="0 0 80 52" fill="none"><g clip-path="url(#clip0_984_538)"><path d="M15.7702 42.6001V41.325C15.7702 40.9874 15.6215 40.6708 15.3626 40.4591C14.2799 39.5688 13.1132 38.9548 12.7459 38.7694V37.1654C12.982 36.966 13.1202 36.6704 13.1202 36.3573V34.4962C13.1202 33.4502 12.2684 32.6001 11.2241 32.6001H10.8236C9.77755 32.6001 8.92746 33.4519 8.92746 34.4962V36.3573C8.92221 36.6704 9.06039 36.9643 9.29653 37.1654V38.7694C8.92921 38.9531 7.76251 39.5705 6.67977 40.4591C6.41915 40.6708 6.27222 40.9874 6.27222 41.325V42.6001" fill="#D52B1E"></path><path d="M15.7702 42.6001V41.325C15.7702 40.9874 15.6215 40.6708 15.3626 40.4591C14.2799 39.5688 13.1132 38.9548 12.7459 38.7694V37.1654C12.982 36.966 13.1202 36.6704 13.1202 36.3573V34.4962C13.1202 33.4502 12.2684 32.6001 11.2241 32.6001H10.8236C9.77755 32.6001 8.92746 33.4519 8.92746 34.4962V36.3573C8.92221 36.6704 9.06039 36.9643 9.29653 37.1654V38.7694C8.92921 38.9531 7.76251 39.5705 6.67977 40.4591C6.41915 40.6708 6.27222 40.9874 6.27222 41.325V42.6001" stroke="#D52B1E" stroke-linecap="square" stroke-linejoin="round"></path></g><path d="M53.3901 1.58571H54.1354C67.2819 1.98542 77.8048 12.7647 77.8157 26.058C77.8152 39.4977 66.8673 50.4368 53.3901 50.4368C39.8903 50.4368 28.9646 39.5208 28.9646 26.0342C28.9646 12.5229 39.8921 1.58571 53.3901 1.58571Z" stroke="#4D4D4D" stroke-width="2" stroke-miterlimit="10"></path><path d="M66.1019 38.5668V35.1132C66.1019 34.1989 65.6992 33.3415 64.9981 32.7683C62.0657 30.357 58.9059 28.6941 57.9111 28.192V23.8479C58.5506 23.3078 58.9249 22.5072 58.9249 21.6592V16.6187C58.9249 13.7857 56.6178 11.4834 53.7896 11.4834H52.7047C49.8718 11.4834 47.5695 13.7905 47.5695 16.6187V21.6592C47.5552 22.5072 47.9295 23.3031 48.569 23.8479V28.192C47.5742 28.6894 44.4144 30.3617 41.482 32.7683C40.7761 33.3415 40.3782 34.1989 40.3782 35.1132V38.5668" stroke="#D52B1E" stroke-width="2" stroke-linecap="round" stroke-linejoin="round"></path><path d="M17.9495 36.2862L29.071 28.3701" stroke="#4D4D4D" stroke-width="2" stroke-linecap="round" stroke-linejoin="round"></path><path d="M19.7183 44.4629H36.9865" stroke="#4D4D4D" stroke-width="2" stroke-linecap="round" stroke-linejoin="round"></path><path d="M16.4292 13.0971V12.5456C16.4292 11.9252 16.073 10.5809 15.5101 10.3052L13.7522 9.44351C13.5914 9.36309 13.488 9.20224 13.488 9.01841V8.40948C13.488 8.40948 13.5799 8.30608 13.6258 8.23715C13.8556 7.92694 14.0395 7.57077 14.1658 7.19163C14.4301 7.07674 14.5909 6.82398 14.5909 6.53675V5.81293C14.5909 5.64059 14.522 5.46826 14.4071 5.34187V4.38827C14.4071 4.28487 14.4531 3.69892 14.0165 3.21638C13.6373 2.79128 13.0284 2.58447 12.1897 2.58447C11.351 2.58447 10.7421 2.80277 10.3629 3.21638C9.92633 3.69892 9.97229 4.28487 9.97229 4.38827V5.34187C9.8574 5.46826 9.78846 5.64059 9.78846 5.81293V6.53675C9.78846 6.75504 9.89187 6.96185 10.0642 7.09972C10.2365 7.7546 10.5812 8.23715 10.7076 8.39799V8.99543C10.7076 9.16777 10.6157 9.32862 10.4548 9.40904L8.81188 10.2822C8.27189 10.5694 7.9502 11.9022 7.9502 12.4996V13.0856" fill="white"></path><path d="M15.5101 10.3052L13.7522 9.44351C13.5914 9.36309 13.488 9.20224 13.488 9.01841V8.40948C13.488 8.40948 13.5799 8.30608 13.6258 8.23715C13.8556 7.92694 14.0395 7.57077 14.1658 7.19163C14.4301 7.07674 14.5909 6.82398 14.5909 6.53675V5.81293C14.5909 5.64059 14.522 5.46826 14.4071 5.34187V4.38827C14.4071 4.28487 14.4531 3.69892 14.0165 3.21638C13.6373 2.79128 13.0284 2.58447 12.1897 2.58447C11.351 2.58447 10.7421 2.80277 10.3629 3.21638C9.92633 3.69892 9.97229 4.28487 9.97229 4.38827V5.34187C9.8574 5.46826 9.78846 5.64059 9.78846 5.81293V6.53675C9.78846 6.75504 9.89187 6.96185 10.0642 7.09972C10.2365 7.7546 10.5812 8.23715 10.7076 8.39799V8.99543C10.7076 9.16777 10.6157 9.32862 10.4548 9.40904L8.81188 10.2822C8.27189 10.5694 7.9502 11.9022 7.9502 12.4996V13.0856C7.9502 13.9358 10.7306 14.1656 12.1897 14.1656C13.6488 14.1656 16.4292 13.9358 16.4292 13.0856V12.5341C16.4292 11.9137 16.073 10.5694 15.5101 10.2937V10.3052Z" stroke="#4D4E4E" stroke-width="0.959999" stroke-linecap="round" stroke-linejoin="round"></path><path d="M22.5644 14.5331V13.9816C22.5644 13.3612 22.2427 12.017 21.7142 11.7412L20.0827 10.8795C19.9334 10.7991 19.83 10.6383 19.83 10.4544V9.84552C19.83 9.84552 19.9104 9.74212 19.9563 9.67318C20.1632 9.36297 20.3355 9.00681 20.4619 8.62767C20.7031 8.51277 20.8525 8.26001 20.8525 7.97278V7.24897C20.8525 7.07663 20.7951 6.90429 20.6802 6.77791V5.82431C20.6802 5.72091 20.7261 5.13496 20.324 4.65241C19.9793 4.22731 19.4049 4.02051 18.6351 4.02051C17.8653 4.02051 17.3023 4.2388 16.9462 4.65241C16.5441 5.13496 16.5785 5.72091 16.59 5.82431V6.77791C16.4866 6.90429 16.4177 7.07663 16.4177 7.24897V7.97278C16.4177 8.19108 16.5096 8.39788 16.6704 8.53575C16.8313 9.19064 17.153 9.67318 17.2679 9.83403V10.4315C17.2679 10.6038 17.176 10.7647 17.0381 10.8451L15.5215 11.7183C15.0275 12.0055 14.7173 13.3382 14.7173 13.9357V14.5216" fill="white"></path><path d="M22.5529 15.5449V13.9938C22.5644 13.3734 22.2427 12.0292 21.7142 11.7534L20.0827 10.8918C19.9334 10.8113 19.83 10.6505 19.83 10.4667V9.85773C19.83 9.85773 19.9104 9.75432 19.9563 9.68539C20.1632 9.37518 20.3355 9.01902 20.4619 8.63987C20.7031 8.52498 20.8525 8.27222 20.8525 7.98499V7.26117C20.8525 7.08884 20.7951 6.9165 20.6802 6.79012V5.83652C20.6802 5.73311 20.7261 5.14716 20.324 4.66462C19.9793 4.23952 19.4049 4.03271 18.6351 4.03271C17.8653 4.03271 17.3023 4.25101 16.9462 4.66462C16.5441 5.14716 16.5785 5.73311 16.59 5.83652V6.79012C16.4866 6.9165 16.4177 7.08884 16.4177 7.26117V7.98499C16.4177 8.20328 16.5096 8.41009 16.6704 8.54796C16.8313 9.20284 17.153 9.68539 17.2679 9.84624V10.4437C17.2679 10.616 17.176 10.7769 17.0381 10.8573L15.5215 11.7305C15.0275 12.0177 14.7173 13.3504 14.7173 13.9479V14.5338" stroke="#4D4E4E" stroke-width="0.959999" stroke-linecap="round" stroke-linejoin="round"></path><path d="M8.85773 11.7534L7.09988 10.8918C6.93904 10.8113 6.83563 10.6505 6.83563 10.4667V9.85773C6.83563 9.85773 6.92755 9.75432 6.9735 9.68539C7.20329 9.37518 7.38711 9.01902 7.51349 8.63987C7.77775 8.52498 7.93859 8.27222 7.93859 7.98499V7.26117C7.93859 7.08884 7.86966 6.9165 7.75477 6.79012V5.83652C7.75477 5.73311 7.80072 5.14716 7.36414 4.66462C6.98499 4.23952 6.37607 4.03271 5.53736 4.03271C4.69865 4.03271 4.08972 4.25101 3.71058 4.66462C3.27399 5.14716 3.31995 5.73311 3.31995 5.83652V6.79012C3.20505 6.9165 3.13612 7.08884 3.13612 7.26117V7.98499C3.13612 8.20328 3.23952 8.41009 3.41186 8.54796C3.5842 9.20284 3.92887 9.68539 4.05525 9.84624V10.4437C4.05525 10.616 3.96334 10.7769 3.80249 10.8573L2.15954 11.7305C1.61955 12.0177 1.29785 13.3504 1.29785 13.9479V14.5338C1.29785 15.384 4.07823 15.6138 5.53736 15.6138C6.99648 15.6138 9.77686 15.384 9.77686 14.5338V13.9823C9.77686 13.3619 9.4207 12.0177 8.85773 11.742V11.7534Z" fill="white"></path><path d="M9.77686 14.5331V13.9816C9.77686 13.3612 9.4207 12.017 8.85773 11.7412L7.09988 10.8795C6.93904 10.7991 6.83563 10.6383 6.83563 10.4544V9.84552C6.83563 9.84552 6.92755 9.74212 6.9735 9.67318C7.20329 9.36297 7.38711 9.00681 7.51349 8.62767C7.77775 8.51277 7.93859 8.26001 7.93859 7.97278V7.24897C7.93859 7.07663 7.86966 6.90429 7.75477 6.77791V5.82431C7.75477 5.72091 7.80072 5.13496 7.36414 4.65241C6.98499 4.22731 6.37607 4.02051 5.53736 4.02051C4.69865 4.02051 4.08972 4.2388 3.71058 4.65241C3.27399 5.13496 3.31995 5.72091 3.31995 5.82431V6.77791C3.20505 6.90429 3.13612 7.07663 3.13612 7.24897V7.97278C3.13612 8.19108 3.23952 8.39788 3.41186 8.53575C3.5842 9.19064 3.92887 9.67318 4.05525 9.83403V10.4315C4.05525 10.6038 3.96334 10.7647 3.80249 10.8451L2.15954 11.7183C1.61955 12.0055 1.29785 13.3382 1.29785 13.9357V15.3373" stroke="#4D4E4E" stroke-width="0.959999" stroke-linecap="round" stroke-linejoin="round"></path><path d="M13.0976 15.9701V15.4186C13.0976 14.7982 12.7414 13.454 12.1784 13.1782L10.4206 12.3166C10.2597 12.2361 10.1563 12.0753 10.1563 11.8915V11.2825C10.1563 11.2825 10.2482 11.1791 10.2942 11.1102C10.524 10.8 10.7078 10.4438 10.8342 10.0647C11.0984 9.94979 11.2593 9.69702 11.2593 9.4098V8.68598C11.2593 8.51364 11.1904 8.3413 11.0755 8.21492V7.26132C11.0755 7.15792 11.1214 6.57197 10.6848 6.08942C10.3057 5.66432 9.69677 5.45752 8.85806 5.45752C8.01935 5.45752 7.41042 5.67581 7.03128 6.08942C6.59469 6.57197 6.64065 7.15792 6.64065 7.26132V8.21492C6.52576 8.3413 6.45682 8.51364 6.45682 8.68598V9.4098C6.45682 9.62809 6.56022 9.8349 6.73256 9.97277C6.9049 10.6276 7.24958 11.1102 7.37596 11.271V11.8685C7.37596 12.0408 7.28404 12.2017 7.12319 12.2821L5.48024 13.1553C4.94025 13.4425 4.50366 15.7174 4.50366 16.3148" fill="white"></path><path d="M13.0979 15.9701V15.4186C13.0979 14.7982 12.7418 13.454 12.1788 13.1782L10.4209 12.3166C10.2601 12.2361 10.1567 12.0753 10.1567 11.8915V11.2825C10.1567 11.2825 10.2486 11.1791 10.2946 11.1102C10.5243 10.8 10.7082 10.4438 10.8346 10.0647C11.0988 9.94979 11.2597 9.69702 11.2597 9.40979V8.68598C11.2597 8.51364 11.1907 8.3413 11.0758 8.21492V7.26132C11.0758 7.15792 11.1218 6.57197 10.6852 6.08942C10.3061 5.66432 9.69713 5.45752 8.85842 5.45752C8.01971 5.45752 7.41078 5.67581 7.03164 6.08942C6.59505 6.57197 6.64101 7.15792 6.64101 7.26132V8.21492C6.52611 8.3413 6.45718 8.51364 6.45718 8.68598V9.40979C6.45718 9.62809 6.56058 9.83489 6.73292 9.97276C6.90526 10.6276 7.24993 11.1102 7.37631 11.271V11.8685C7.37631 12.0408 7.2844 12.2017 7.12355 12.2821L5.4806 13.1553C4.94061 13.4425 4.60742 14.7752 4.60742 15.3727" stroke="#4D4E4E" stroke-width="0.959999" stroke-linecap="round" stroke-linejoin="round"></path><path d="M19.7498 15.9701V15.4186C19.7498 14.7982 19.3936 13.454 18.8306 13.1782L17.0728 12.3166C16.9119 12.2361 16.8085 12.0753 16.8085 11.8915V11.2825C16.8085 11.2825 16.9004 11.1791 16.9464 11.1102C17.1762 10.8 17.36 10.4438 17.4864 10.0647C17.7506 9.94979 17.9115 9.69702 17.9115 9.40979V8.68598C17.9115 8.51364 17.8426 8.3413 17.7277 8.21492V7.26132C17.7277 7.15792 17.7736 6.57197 17.337 6.08942C16.9579 5.66432 16.349 5.45752 15.5103 5.45752C14.6715 5.45752 14.0626 5.67581 13.6835 6.08942C13.2469 6.57197 13.2928 7.15792 13.2928 7.26132V8.21492C13.178 8.3413 13.109 8.51364 13.109 8.68598V9.40979C13.109 9.62809 13.2124 9.83489 13.3848 9.97276C13.5571 10.6276 13.9018 11.1102 14.0282 11.271V11.8685C14.0282 12.0408 13.9362 12.2017 13.7754 12.2821L12.1324 13.1553C11.5924 13.4425 11.2708 14.7752 11.2708 15.3727V15.9586" fill="white"></path><path d="M19.7498 15.9701V15.4186C19.7498 14.7982 19.3936 13.454 18.8306 13.1782L17.0728 12.3166C16.9119 12.2361 16.8085 12.0753 16.8085 11.8915V11.2825C16.8085 11.2825 16.9004 11.1791 16.9464 11.1102C17.1762 10.8 17.36 10.4438 17.4864 10.0647C17.7506 9.94979 17.9115 9.69702 17.9115 9.40979V8.68598C17.9115 8.51364 17.8426 8.3413 17.7277 8.21492V7.26132C17.7277 7.15792 17.7736 6.57197 17.337 6.08942C16.9579 5.66432 16.349 5.45752 15.5103 5.45752C14.6715 5.45752 14.0626 5.67581 13.6835 6.08942C13.2469 6.57197 13.2928 7.15792 13.2928 7.26132V8.21492C13.178 8.3413 13.109 8.51364 13.109 8.68598V9.40979C13.109 9.62809 13.2124 9.83489 13.3848 9.97276C13.5571 10.6276 13.9018 11.1102 14.0282 11.271V11.8685C14.0282 12.0408 13.9362 12.2017 13.7754 12.2821L12.1324 13.1553C11.5924 13.4425 11.2708 14.7752 11.2708 15.3727V15.9586" stroke="#4D4E4E" stroke-width="0.959999" stroke-linecap="round" stroke-linejoin="round"></path><path d="M16.4292 16.6937V16.1423C16.4292 15.5219 16.073 14.1776 15.5101 13.9019L13.7522 13.0402C13.5914 12.9598 13.488 12.7989 13.488 12.6151V12.0062C13.488 12.0062 13.5799 11.9028 13.6258 11.8338C13.8556 11.5236 14.0395 11.1675 14.1658 10.7883C14.4301 10.6734 14.5909 10.4207 14.5909 10.1334V9.40961C14.5909 9.23727 14.522 9.06493 14.4071 8.93855V7.98495C14.4071 7.88155 14.4531 7.2956 14.0165 6.81306C13.6373 6.38796 13.0284 6.18115 12.1897 6.18115C11.351 6.18115 10.7421 6.39945 10.3629 6.81306C9.92633 7.2956 9.97229 7.88155 9.97229 7.98495V8.93855C9.8574 9.06493 9.78846 9.23727 9.78846 9.40961V10.1334C9.78846 10.3517 9.89187 10.5585 10.0642 10.6964C10.2365 11.3513 10.5812 11.8338 10.7076 11.9947V12.5921C10.7076 12.7644 10.6157 12.9253 10.4548 13.0057L8.81188 13.8789C8.27189 14.1661 7.9502 15.4989 7.9502 16.0963V16.6823" fill="white"></path><path d="M16.4292 16.6937V16.1423C16.4292 15.5219 16.073 14.1776 15.5101 13.9019L13.7522 13.0402C13.5914 12.9598 13.488 12.7989 13.488 12.6151V12.0062C13.488 12.0062 13.5799 11.9028 13.6258 11.8338C13.8556 11.5236 14.0395 11.1675 14.1658 10.7883C14.4301 10.6734 14.5909 10.4207 14.5909 10.1334V9.40961C14.5909 9.23727 14.522 9.06493 14.4071 8.93855V7.98495C14.4071 7.88155 14.4531 7.2956 14.0165 6.81306C13.6373 6.38796 13.0284 6.18115 12.1897 6.18115C11.351 6.18115 10.7421 6.39945 10.3629 6.81306C9.92633 7.2956 9.97229 7.88155 9.97229 7.98495V8.93855C9.8574 9.06493 9.78846 9.23727 9.78846 9.40961V10.1334C9.78846 10.3517 9.89187 10.5585 10.0642 10.6964C10.2365 11.3513 10.5812 11.8338 10.7076 11.9947V12.5921C10.7076 12.7644 10.6157 12.9253 10.4548 13.0057L8.81188 13.8789C8.27189 14.1661 7.9502 15.4989 7.9502 16.0963V16.6823" stroke="#4D4E4E" stroke-width="0.959999" stroke-linecap="round" stroke-linejoin="round"></path><path d="M18.8076 16.418C13.4077 17.7278 11.5924 17.6014 6.2729 16.6938C-0.126573 14.9129 0.539799 16.3146 0.643201 16.3836L9.67369 24.5868V33.2726C9.67369 33.3301 9.67369 33.399 9.71965 33.445C9.80007 33.5943 9.9839 33.6977 10.2137 33.6977C10.3745 33.6977 10.5124 33.6403 10.6043 33.5599L14.2694 29.4353C14.3843 29.3433 14.4302 29.217 14.4072 29.1021V24.5868L23.6216 16.3721C23.8284 16.2112 24.8624 14.9474 18.8191 16.418H18.8076Z" stroke="#4D4E4E" stroke-width="0.959999" stroke-miterlimit="10"></path><defs><clipPath id="clip0_984_538"><rect width="12" height="11" fill="white" transform="translate(5.27222 31.6001)"></rect></clipPath></defs></svg>