<svg xmlns="http://www.w3.org/2000/svg" width="80" height="52" viewBox="0 0 80 52" fill="none"><g clip-path="url(#clip0_984_668)"><path d="M74.8221 50.2402V42.1351C74.8221 41.1412 74.3804 40.2358 73.6295 39.6174C70.4714 37.0335 67.0704 35.2225 66.0103 34.6925V30.0105C66.6949 29.4363 67.0924 28.575 67.0924 27.6474V22.2146C67.0924 19.1669 64.6189 16.6934 61.5712 16.6934H60.4007C57.353 16.6934 54.8795 19.1669 54.8795 22.2146V27.6474C54.8795 28.5529 55.2771 29.4142 55.9617 30.0105V34.6925C55.8292 34.7587 54.8575 35.2004 54.6587 35.3109" stroke="#4E4E4E" stroke-width="2" stroke-miterlimit="10"></path><path d="M61.5051 51.1013L61.2622 49.8425L59.4733 43.0845C59.1199 42.0245 57.0661 34.6702 45.2065 34.5819V33.8752C45.2065 33.4997 44.8973 33.1905 44.5219 33.1905C44.1464 33.1905 43.8373 33.4997 43.8373 33.8752V35.2444C43.8373 35.664 43.7047 39.308 39.7516 39.308C35.7984 39.308 35.6659 35.642 35.6659 35.2223V33.8531C35.6659 33.4776 35.3567 33.1685 34.9812 33.1685C34.6058 33.1685 34.2966 33.4776 34.2966 33.8531V34.5377C25.551 34.604 21.1341 39.9043 20.0298 43.0183C20.0298 43.0845 19.9857 43.1508 19.9857 43.195L18.241 51.1455" stroke="#4E4E4E" stroke-width="2" stroke-miterlimit="10"></path><path d="M24.0271 5.25322L39.7073 7.30711C39.7073 7.30711 39.7735 7.30711 39.7956 7.30711C39.8177 7.30711 39.8619 7.30711 39.884 7.30711L54.7912 5.36365V7.72672C54.3716 8.21259 53.4219 9.40517 53.4219 10.7082C53.4219 12.2099 54.6366 12.7621 55.4758 12.7621C56.3151 12.7621 57.5297 12.2099 57.5297 10.7082C57.5297 9.40517 56.6022 8.1905 56.1605 7.72672V4.56859C56.1605 4.56859 56.1605 4.39192 56.1163 4.30358C56.1163 4.28149 56.0942 4.25941 56.0721 4.23732C56.05 4.19315 56.028 4.14898 55.9838 4.10481C55.9617 4.08273 55.9396 4.06064 55.8954 4.03856C55.8513 4.01647 55.8292 3.9723 55.7629 3.95022C55.7188 3.95022 55.6967 3.92813 55.6525 3.90605C55.6083 3.90605 55.5863 3.88396 55.5421 3.88396L39.8619 1.83008C39.8619 1.83008 39.7514 1.83008 39.6852 1.83008L24.005 3.88396C23.6737 3.92813 23.4087 4.21524 23.4087 4.56859C23.4087 4.92195 23.6516 5.20905 24.005 5.25322H24.0271Z" stroke="#D52D27" stroke-width="2" stroke-miterlimit="10"></path><path d="M29.5483 14.1094C29.1728 14.1094 28.8636 14.4186 28.8636 14.794V15.5891C28.0686 15.8762 27.4944 16.627 27.4944 17.5104V20.2269C27.4944 21.1765 28.1569 21.9716 29.0182 22.2145C29.3937 23.2967 30.3875 26.2119 30.9617 27.3603C32.0439 29.5246 35.1136 33.1906 39.7515 33.1906C44.3893 33.1906 47.459 29.5246 48.5412 27.3603C49.1154 26.2119 50.1313 23.2967 50.4847 22.2145C51.3681 21.9937 52.0085 21.1765 52.0085 20.2269V17.5104C52.0085 16.627 51.4343 15.8541 50.6393 15.5891V14.794C50.6393 14.4186 50.3301 14.1094 49.9546 14.1094" stroke="#4E4E4E" stroke-width="2" stroke-miterlimit="10"></path><path d="M28.8638 7.30713V12.0774C28.8638 12.3425 29.0184 12.5633 29.2392 12.6958C29.4159 12.7842 33.5457 14.816 39.7737 14.816C46.0016 14.816 50.1314 12.7842 50.3081 12.6958C50.529 12.5854 50.6836 12.3425 50.6836 12.0774V7.30713" stroke="#D52D27" stroke-width="2" stroke-miterlimit="10"></path><path d="M4.54834 50.2402V42.1351C4.54834 41.1412 4.99004 40.2358 5.74092 39.6174C8.89905 37.0335 12.3001 35.2225 13.3602 34.6925V30.0105C12.6755 29.4363 12.278 28.575 12.278 27.6474V22.2146C12.278 19.1669 14.7515 16.6934 17.7992 16.6934H18.9697C22.0174 16.6934 24.4909 19.1669 24.4909 22.2146V27.6474C24.4909 28.5529 24.0934 29.4142 23.4088 30.0105V34.6925C23.5413 34.7587 24.513 35.2004 24.7118 35.3109" stroke="#4E4E4E" stroke-width="2" stroke-miterlimit="10"></path></g><defs><clipPath id="clip0_984_668"><rect width="71" height="51" fill="white" transform="translate(4)"></rect></clipPath></defs></svg>